<svg xmlns="http://www.w3.org/2000/svg" xmlns:xlink="http://www.w3.org/1999/xlink" version="1.1" x="0px" y="0px" viewBox="0 0 48 60" style="enable-background:new 0 0 48 48;" xml:space="preserve"><style type="text/css">
	.st0{display:none;}
</style><g><g><path d="M35,40c0.2,0,0.4,0,0.5-0.1c0.3-0.2,0.5-0.5,0.5-0.9V9c0-0.6-0.4-1-1-1H13c-0.6,0-1,0.4-1,1v30c0,0.4,0.2,0.7,0.5,0.9    c0.3,0.2,0.7,0.2,1,0L24,34.1l10.5,5.7C34.7,40,34.8,40,35,40z M34,37.3l-9.5-5.2C24.3,32,24.2,32,24,32s-0.3,0-0.5,0.1L14,37.3    V10h20V37.3z"/></g></g><text x="0" y="63" fill="#000000" font-size="5px" font-weight="bold" font-family="'Helvetica Neue', Helvetica, Arial-Unicode, Arial, Sans-serif">Created by tezar tantular</text><text x="0" y="68" fill="#000000" font-size="5px" font-weight="bold" font-family="'Helvetica Neue', Helvetica, Arial-Unicode, Arial, Sans-serif">from the Noun Project</text></svg>