<?xml version="1.0" encoding="utf-8"?>
<!-- Generator: Adobe Illustrator 26.1.0, SVG Export Plug-In . SVG Version: 6.00 Build 0)  -->
<svg version="1.1" id="Lager_1" xmlns="http://www.w3.org/2000/svg" xmlns:xlink="http://www.w3.org/1999/xlink" x="0px" y="0px"
	 viewBox="0 0 800 800" style="enable-background:new 0 0 800 800;" xml:space="preserve">
<style type="text/css">
	.st0{fill:#1D3D91;}
</style>
<path class="st0" d="M696.7,352.2c-5.6-11.5-17.2-18.9-30-18.9H533.3V100c0-18.4-14.9-33.3-33.3-33.3H300
	c-18.4,0-33.3,14.9-33.3,33.3v233.3H133.3c-18.4,0-33.3,15-33.3,33.4c0,7.5,2.6,14.8,7.3,20.7L374,720.8
	c11.5,14.4,32.5,16.7,46.9,5.2c1.9-1.5,3.7-3.3,5.2-5.2l266.7-333.3C700.7,377.5,702.2,363.8,696.7,352.2L696.7,352.2z"/>
</svg>
