<?xml version="1.0" encoding="utf-8"?>
<!-- Generator: Adobe Illustrator 26.1.0, SVG Export Plug-In . SVG Version: 6.00 Build 0)  -->
<svg version="1.1" id="Lager_1" xmlns="http://www.w3.org/2000/svg" xmlns:xlink="http://www.w3.org/1999/xlink" x="0px" y="0px"
	 viewBox="0 0 800 800" style="enable-background:new 0 0 800 800;" xml:space="preserve">
<style type="text/css">
	.st0{fill:#1D3D91;}
</style>
<path class="st0" d="M426,79.2c-12.7-15.8-39.4-15.8-52.1,0L107.3,412.5c-11.5,14.4-9.1,35.4,5.3,46.9c5.9,4.7,13.2,7.3,20.7,7.3
	h133.3V700c0,18.4,14.9,33.3,33.3,33.3h200c18.4,0,33.3-14.9,33.3-33.3V466.7h133.3c18.4,0,33.3-15,33.3-33.4
	c0-7.5-2.6-14.8-7.3-20.7L426,79.2z M500,400h-33.3v266.7H333.3V400H202.7L400,153.4L597.3,400H500z"/>
</svg>
